<?xml version="1.0" standalone="no"?>
<!DOCTYPE svg PUBLIC "-//W3C//DTD SVG 20010904//EN"
 "http://www.w3.org/TR/2001/REC-SVG-20010904/DTD/svg10.dtd">
<svg version="1.0" xmlns="http://www.w3.org/2000/svg"
 width="400.000000pt" height="400.000000pt" viewBox="0 0 400.000000 400.000000"
 preserveAspectRatio="xMidYMid meet">
<metadata>
Created by potrace 1.11, written by Peter Selinger 2001-2013
</metadata>
<g transform="translate(0.000000,400.000000) scale(0.100000,-0.100000)"
fill="#000000" stroke="none">
<path d="M0 2000 l0 -2000 2000 0 2000 0 0 2000 0 2000 -2000 0 -2000 0 0
-2000z m1487 1055 c33 -23 81 -105 114 -196 60 -162 45 -210 -245 -824 -32
-66 -51 -113 -43 -105 7 8 54 65 102 125 152 187 376 446 460 530 218 219 496
407 575 390 59 -13 118 -97 128 -181 11 -100 -78 -279 -492 -994 l-67 -115 48
50 c26 28 168 176 314 330 310 326 409 422 539 526 52 42 149 125 215 184 174
155 238 188 294 149 25 -18 109 -142 130 -192 19 -46 -1 -78 -155 -248 -173
-189 -282 -322 -383 -462 -235 -329 -401 -689 -401 -872 0 -117 76 -165 197
-124 49 17 291 168 440 275 44 33 84 59 87 59 3 0 6 -24 6 -53 0 -50 -2 -55
-52 -103 -220 -212 -514 -422 -663 -474 -190 -67 -357 59 -372 280 -20 292
123 570 557 1080 140 164 163 197 156 215 -9 25 -35 17 -100 -29 -221 -159
-672 -632 -1034 -1086 -86 -107 -189 -236 -229 -286 -76 -95 -109 -124 -141
-124 -52 0 -101 116 -109 256 -8 136 -11 131 317 589 314 440 510 777 510 879
0 66 -33 73 -109 21 -250 -168 -698 -730 -1176 -1479 -131 -205 -167 -234
-229 -185 -50 40 -116 206 -116 293 1 50 4 56 161 271 384 527 631 941 674
1128 19 86 13 124 -23 138 -56 22 -165 -29 -512 -236 -340 -203 -462 -265
-522 -265 -61 0 -71 54 -38 222 29 151 45 191 102 253 50 55 230 197 275 218
49 22 34 -6 -40 -77 -88 -84 -105 -124 -34 -83 209 121 380 206 545 271 184
72 295 92 339 61z"/>
</g>
</svg>
