<?xml version="1.0" standalone="no"?>
<!DOCTYPE svg PUBLIC "-//W3C//DTD SVG 20010904//EN"
 "http://www.w3.org/TR/2001/REC-SVG-20010904/DTD/svg10.dtd">
<svg version="1.0" xmlns="http://www.w3.org/2000/svg"
 width="400.000000pt" height="400.000000pt" viewBox="0 0 400.000000 400.000000"
 preserveAspectRatio="xMidYMid meet">
<metadata>
Created by potrace 1.11, written by Peter Selinger 2001-2013
</metadata>
<g transform="translate(0.000000,400.000000) scale(0.100000,-0.100000)"
fill="#000000" stroke="none">
<path d="M535 3896 c-22 -6 -58 -18 -80 -26 -22 -8 -42 -14 -45 -15 -17 -2
-132 -87 -170 -125 -49 -48 -104 -124 -115 -159 -3 -12 -11 -21 -16 -21 -5 0
-8 -3 -7 -7 1 -5 -5 -28 -12 -53 -25 -84 -30 -122 -31 -237 -1 -66 -5 -91 -13
-86 -8 5 -8 3 0 -8 17 -20 18 -242 1 -233 -9 6 -9 4 -1 -7 17 -20 18 -242 1
-233 -9 6 -9 5 0 -7 16 -20 17 -217 0 -238 -6 -8 -7 -12 -1 -8 8 4 11 -95 12
-353 0 -273 -2 -359 -11 -353 -9 5 -9 3 -1 -8 16 -20 16 -82 1 -72 -9 5 -9 3
0 -8 8 -9 11 -51 10 -116 -1 -86 -3 -100 -16 -96 -9 2 -8 -1 4 -8 19 -12 19
-12 0 -20 -15 -6 -16 -8 -4 -8 14 -1 16 -15 15 -95 0 -80 -3 -93 -16 -89 -10
3 -9 -1 4 -11 18 -14 15 -21 -7 -17 -5 1 -6 -3 -2 -9 3 -6 10 -8 14 -6 4 3 7
-17 7 -45 -1 -32 -6 -53 -16 -59 -13 -9 -13 -10 0 -10 14 0 16 -28 15 -221 0
-121 3 -223 7 -225 5 -3 6 -10 2 -15 -3 -5 -10 -7 -15 -3 -5 3 -7 10 -4 15 4
5 1 9 -4 9 -11 0 -11 -26 0 -45 3 -5 5 -24 4 -42 -2 -28 0 -31 16 -22 11 5 20
6 20 2 1 -4 2 -14 3 -21 0 -7 6 -16 11 -20 15 -11 16 -29 0 -29 -7 0 -11 6 -9
12 3 6 -2 12 -11 12 -10 0 -14 -6 -9 -16 3 -9 7 -22 8 -29 3 -19 23 -35 35
-27 17 10 2 27 -18 20 -12 -5 -13 -4 -4 6 10 10 16 9 29 -2 15 -12 14 -15 -6
-31 -12 -10 -17 -18 -11 -18 7 0 10 -4 7 -8 -8 -13 31 -65 54 -74 16 -6 20 -4
17 5 -2 6 -11 11 -19 11 -8 -1 -21 8 -28 20 -10 17 -10 19 1 8 7 -6 20 -12 28
-12 13 1 13 2 -1 11 -10 5 -18 15 -18 20 0 6 8 3 18 -7 9 -10 15 -20 14 -22
-2 -3 2 -8 9 -12 18 -12 3 -41 -17 -33 -12 4 -15 3 -10 -5 11 -17 34 -15 45 6
6 9 11 13 11 9 0 -4 -7 -19 -16 -32 -9 -14 -12 -25 -7 -25 5 0 29 -19 53 -42
24 -24 40 -38 37 -32 -4 7 0 17 7 24 12 9 21 8 43 -5 26 -15 27 -15 3 -9 -24
6 -24 5 -8 -12 15 -15 19 -15 34 -3 12 9 15 10 10 2 -7 -13 2 -16 34 -14 10 0
11 -1 3 -5 -7 -3 -13 -10 -13 -15 0 -6 4 -8 10 -4 5 3 16 -8 25 -26 9 -17 19
-28 22 -25 3 3 14 1 24 -5 15 -8 24 -5 43 15 14 13 27 22 30 19 3 -3 -5 -14
-17 -23 -12 -10 -19 -21 -15 -25 4 -4 14 0 23 9 9 9 23 16 30 16 19 0 28 -17
14 -26 -8 -4 -9 -3 -5 4 4 7 1 12 -8 12 -19 0 -32 -20 -14 -21 7 -1 131 -2
276 -3 237 -2 264 0 272 15 5 9 8 18 5 20 -2 3 12 4 30 4 19 0 40 -6 46 -13 7
-6 11 -12 8 -13 -2 0 -12 -2 -22 -4 -15 -3 -16 -1 -5 12 11 14 11 15 -2 11 -8
-2 -15 -11 -15 -18 0 -10 15 -14 53 -15 38 -1 52 3 52 13 0 12 -3 12 -17 1
-14 -12 -16 -12 -8 0 6 11 4 13 -9 8 -9 -4 -15 -3 -11 2 3 5 -1 11 -7 14 -7 3
-3 4 10 4 12 -1 22 -5 22 -10 0 -5 8 -3 17 4 14 12 16 12 8 0 -6 -11 -4 -13
11 -7 33 13 53 15 59 5 4 -5 11 -9 16 -9 6 0 8 4 5 8 -6 11 34 9 51 -1 6 -4
13 -1 16 5 3 10 10 8 25 -5 12 -11 23 -14 26 -9 3 6 0 12 -6 14 -7 3 1 5 19 5
24 0 31 -4 30 -19 -1 -10 -5 -18 -10 -18 -5 0 -7 7 -3 15 4 13 2 14 -15 5 -11
-6 -17 -14 -15 -18 8 -13 169 -8 173 5 2 6 -1 14 -6 18 -7 3 -8 0 -5 -9 3 -9
2 -16 -3 -16 -5 0 -9 9 -10 20 -2 20 5 21 55 5 17 -6 20 -10 11 -16 -8 -5 -17
-3 -21 4 -5 9 -8 8 -8 -3 0 -14 55 -15 460 -15 427 0 460 1 472 18 15 21 68
33 68 16 0 -8 4 -8 13 -1 14 12 35 11 55 -1 15 -10 16 -27 1 -27 -5 0 -8 4 -5
8 3 5 -15 8 -39 7 -30 -1 -42 2 -38 9 4 6 -2 4 -12 -4 -15 -12 -17 -12 -10 -1
5 10 4 12 -4 7 -6 -4 -9 -11 -6 -16 3 -4 0 -10 -6 -12 -5 -2 62 -3 150 -3 89
0 161 -4 161 -8 0 -5 5 -5 12 -1 17 11 68 12 68 2 0 -5 9 -4 20 2 19 10 24 6
21 -13 -1 -5 7 -2 18 5 17 12 127 16 171 6 8 -2 14 3 15 10 0 12 16 15 25 5 3
-4 -1 -3 -7 1 -9 5 -11 2 -6 -10 4 -11 8 -13 11 -6 2 7 10 12 18 12 8 0 14 4
14 10 0 5 -3 9 -7 7 -5 -1 -10 2 -13 7 -3 5 2 10 11 11 21 3 20 -32 -1 -46
-11 -7 -7 -8 15 -3 16 4 48 8 72 8 24 1 43 4 43 9 0 4 0 12 0 18 0 5 -5 7 -10
4 -6 -4 -8 -10 -6 -14 3 -4 -1 -8 -8 -8 -11 0 -12 4 -3 19 7 10 15 18 19 18
11 0 26 -33 21 -46 -2 -6 4 -14 13 -18 14 -5 15 -4 4 9 -11 13 -8 15 16 15 22
0 26 -3 14 -10 -8 -5 -10 -10 -4 -10 18 0 24 13 12 27 -9 11 -7 13 15 9 15 -2
32 -8 39 -12 10 -6 11 -5 1 7 -11 13 -8 15 22 14 27 0 32 2 23 12 -8 11 -7 12
7 7 12 -5 16 -4 12 3 -11 17 23 9 34 -8 8 -10 8 -7 3 11 -3 14 -3 22 1 18 5
-4 13 0 20 9 13 17 61 30 50 13 -4 -6 1 -7 10 -3 13 5 14 7 3 14 -12 8 -4 13
15 10 5 -1 6 3 2 9 -3 5 1 13 9 16 9 3 13 10 10 15 -3 5 4 9 15 9 11 0 23 -5
26 -11 5 -6 13 -3 22 10 8 12 19 19 24 15 6 -3 3 -11 -7 -18 -13 -10 -14 -15
-4 -21 9 -5 11 -4 6 3 -4 7 -2 12 3 12 6 0 11 -5 11 -12 0 -6 3 -8 7 -4 4 3
13 -4 20 -16 7 -13 12 -18 13 -11 0 6 6 10 13 9 19 -3 38 -17 33 -25 -3 -4 7
-8 20 -9 22 -2 24 1 18 20 -6 19 -4 21 7 11 12 -10 15 -1 14 62 0 40 -3 71 -6
69 -4 -2 -9 3 -13 11 -3 8 -1 17 4 20 4 3 10 0 12 -6 2 -6 3 73 3 175 0 101
-4 188 -8 192 -9 10 -9 27 1 21 4 -3 7 65 7 150 0 85 -1 149 -3 144 -2 -6 -8
-9 -12 -6 -5 3 -7 12 -4 20 4 8 9 13 13 11 3 -2 6 22 6 54 0 32 -3 56 -6 54
-4 -2 -9 3 -13 11 -3 8 -1 17 4 20 4 3 10 -1 13 -7 3 -7 4 1 3 17 -1 17 -5 36
-9 43 -5 6 -4 12 0 12 5 0 9 15 9 33 1 17 -1 26 -3 19 -3 -6 -9 -10 -13 -7 -5
3 -7 12 -4 20 4 8 9 13 13 11 4 -3 7 22 7 54 0 32 -3 57 -7 54 -4 -2 -9 3 -13
11 -3 8 -1 17 4 20 4 3 10 -1 13 -7 3 -7 4 2 3 20 -1 17 -7 37 -13 43 -8 8
-10 2 -8 -20 2 -19 -1 -28 -8 -24 -6 4 -7 1 -2 -8 7 -11 6 -12 -7 -2 -8 7 -18
10 -21 6 -4 -3 -7 -3 -7 2 0 4 8 14 17 21 10 7 19 17 19 23 1 6 2 16 3 22 1 8
5 9 14 0 11 -9 14 -3 13 29 -1 22 -6 39 -11 38 -13 -4 -17 -38 -5 -38 6 0 10
-5 10 -11 0 -5 -4 -8 -9 -4 -5 3 -12 1 -16 -5 -4 -6 -11 -7 -17 -4 -6 4 -8 -1
-4 -14 4 -11 3 -23 -1 -25 -4 -3 -8 16 -9 41 0 26 1 41 3 34 3 -6 9 -9 14 -6
6 3 5 12 -3 21 -15 19 -19 65 -4 56 6 -4 6 1 2 13 -4 10 -10 30 -12 44 -3 18
-2 21 5 10 5 -8 7 -18 4 -24 -4 -5 4 -7 18 -3 23 6 23 5 5 -8 -13 -10 -15 -15
-6 -15 11 0 11 -3 2 -12 -15 -15 -16 -31 0 -22 7 4 8 3 4 -5 -4 -6 -12 -9 -17
-6 -5 4 -9 2 -9 -4 0 -5 4 -12 9 -16 13 -7 30 25 24 45 -3 12 -1 11 9 -2 12
-14 14 1 13 97 0 63 -4 117 -8 121 -10 10 -9 26 1 20 4 -2 8 6 8 19 0 18 -3
22 -12 14 -10 -8 -12 -5 -11 10 1 12 6 20 12 18 14 -6 15 675 0 686 -7 5 -7 9
0 15 6 4 10 18 10 32 0 19 -5 25 -23 24 -12 -1 -22 3 -22 8 0 5 -5 6 -10 3 -7
-4 -10 109 -11 332 -2 369 -1 354 -18 432 -22 104 -84 214 -162 291 -67 66
-79 74 -160 114 -141 69 -62 66 -1614 64 -1011 0 -1411 -4 -1440 -12z m3452
-1253 c0 -7 -3 -13 -7 -13 -3 0 -6 -13 -6 -30 0 -16 2 -30 6 -30 3 0 5 -51 5
-114 0 -81 -3 -112 -11 -109 -7 2 -15 -1 -19 -7 -3 -6 -3 -10 2 -9 24 4 29 -6
29 -61 -1 -33 -4 -60 -8 -60 -5 0 -8 -5 -8 -11 0 -5 4 -8 8 -5 4 2 8 -4 8 -14
0 -10 -4 -16 -8 -14 -4 3 -8 0 -8 -5 0 -6 4 -11 8 -11 5 0 8 -20 8 -44 0 -25
-3 -43 -8 -40 -4 3 -6 19 -3 35 4 21 1 31 -10 35 -8 3 -13 10 -10 14 3 5 2 11
-3 14 -4 2 -8 -6 -8 -19 0 -15 5 -21 13 -18 7 3 13 0 13 -7 0 -6 -4 -9 -9 -5
-5 3 -13 0 -17 -6 -5 -8 -3 -9 7 -4 8 5 11 5 7 0 -4 -4 0 -22 9 -39 22 -40 24
-125 5 -148 -8 -10 -12 -18 -7 -18 4 0 2 -7 -5 -15 -12 -15 -3 -21 24 -16 5 1
4 -5 -3 -13 -7 -9 -9 -21 -5 -28 13 -20 13 -38 2 -38 -7 0 -7 -4 -1 -12 17
-21 12 -50 -6 -42 -9 3 -21 7 -26 7 -6 0 -10 16 -11 34 0 19 2 30 5 26 8 -10
31 -15 31 -7 0 4 -8 12 -17 19 -9 7 -18 20 -19 29 -2 15 0 15 13 4 15 -12 15
-11 3 12 -19 34 -21 128 -3 135 8 2 12 1 9 -3 -3 -5 1 -9 8 -9 11 0 12 4 3 18
-6 9 -16 15 -22 13 -7 -3 -12 7 -12 26 0 21 4 29 13 26 8 -3 11 0 7 9 -3 8 -8
13 -12 11 -9 -6 -7 131 2 140 4 4 1 14 -6 22 -9 12 -9 16 1 19 6 3 9 10 5 16
-13 20 -10 126 3 131 13 5 12 -23 -1 -44 -3 -5 0 -7 8 -4 8 3 14 13 12 22 -1
9 2 22 7 29 7 9 4 11 -11 8 -26 -5 -37 11 -21 30 7 8 8 15 3 15 -6 0 -10 15
-9 33 1 26 6 32 22 31 11 -1 21 4 21 11 0 6 -6 12 -13 12 -7 0 -11 -4 -8 -9 3
-4 -1 -5 -9 -2 -10 4 -14 20 -12 57 1 29 3 52 4 53 14 5 48 -3 48 -13z m-17
-926 c0 -4 6 -5 13 -1 8 5 8 2 -2 -9 -7 -9 -9 -17 -4 -17 5 0 10 -6 10 -14 0
-8 -5 -14 -11 -13 -19 3 -25 21 -13 35 9 11 7 13 -8 10 -10 -1 -20 2 -22 9 -3
7 4 11 16 10 12 -1 21 -5 21 -10z m17 -82 c0 -8 -4 -12 -9 -9 -5 3 -6 10 -3
15 9 13 12 11 12 -6z m-19 -235 c20 -25 24 -87 5 -114 -11 -17 -10 -23 4 -38
9 -10 12 -18 7 -18 -6 0 -10 -9 -11 -20 -1 -11 4 -20 10 -20 7 0 6 -4 -3 -10
-12 -8 -12 -10 -1 -10 11 0 11 -3 -2 -18 -12 -13 -13 -21 -4 -37 15 -28 16
-86 0 -109 -11 -17 -10 -23 5 -40 9 -11 11 -16 5 -12 -7 4 -13 3 -13 -1 0 -5
6 -15 13 -22 10 -11 10 -13 0 -7 -7 4 -13 2 -13 -3 0 -6 3 -11 8 -11 4 0 7
-36 8 -80 0 -44 -4 -80 -9 -80 -5 0 -6 8 -2 18 5 14 4 15 -7 4 -11 -11 -10
-16 6 -28 13 -9 15 -14 6 -14 -11 0 -11 -3 -2 -12 8 -8 8 -15 1 -24 -6 -7 -7
-19 -3 -26 12 -19 14 -39 3 -32 -13 8 -11 -10 4 -25 10 -11 10 -13 0 -7 -7 4
-13 2 -13 -3 0 -6 4 -11 8 -11 5 0 8 -18 8 -39 0 -22 -3 -38 -7 -35 -4 2 -9
-3 -13 -11 -3 -8 0 -14 6 -12 8 1 12 -18 13 -60 0 -35 -3 -63 -7 -63 -4 0 -8
-5 -8 -11 0 -5 4 -8 8 -5 10 6 9 -25 -2 -42 -4 -6 -13 -12 -19 -12 -7 0 -6 4
3 11 13 9 12 10 -2 5 -10 -3 -20 0 -24 6 -5 7 -2 8 6 3 9 -5 11 -4 6 3 -5 8
-2 10 8 6 18 -7 20 4 7 25 -7 10 -4 19 7 28 15 12 15 12 -3 7 -17 -5 -18 -4
-5 6 13 10 13 11 0 7 -8 -2 -14 -10 -12 -16 1 -7 -2 -9 -9 -5 -8 5 -9 3 -4 -6
5 -9 4 -11 -3 -6 -7 4 -10 2 -6 -7 3 -8 -2 -20 -11 -27 -12 -10 -13 -16 -4
-26 6 -8 8 -14 3 -14 -5 0 -2 -5 6 -11 12 -8 9 -9 -9 -4 -20 6 -23 4 -18 -9 6
-14 3 -15 -14 -5 -19 9 -20 9 -10 -10 17 -30 13 -36 -9 -16 -19 17 -19 19 -3
38 10 10 17 21 16 23 -2 2 0 3 3 2 8 -3 28 43 25 56 -1 5 3 13 10 17 16 10 20
39 6 39 -8 0 -7 4 2 9 11 7 10 11 -5 20 -17 11 -16 11 6 5 14 -3 22 -3 18 1
-3 3 0 21 7 40 8 18 11 36 7 40 -4 5 0 6 10 2 17 -6 20 15 3 30 -4 4 -5 2 -1
-4 4 -7 2 -13 -3 -13 -14 0 -14 17 -1 25 7 4 7 13 0 26 -6 11 -7 25 -3 32 12
19 12 37 1 37 -7 0 -6 5 1 14 10 11 7 18 -11 31 -14 11 -17 15 -6 12 10 -4 20
-2 23 3 3 4 0 10 -7 12 -7 3 -9 11 -3 24 10 24 10 44 0 68 -5 11 -3 21 5 26 9
5 6 13 -12 30 l-23 22 23 -7 c22 -6 23 -5 12 15 -8 16 -8 25 0 35 8 10 8 14
-1 17 -9 3 -9 9 0 26 10 18 9 22 -4 22 -9 0 -14 -4 -10 -9 3 -5 1 -12 -4 -15
-5 -4 -8 1 -7 11 2 9 11 20 22 24 13 5 14 8 4 8 -9 1 -11 4 -5 9 14 10 15 44
1 39 -6 -2 -11 -9 -11 -15 0 -5 -3 -13 -7 -17 -10 -10 -4 17 10 42 17 30 15
38 -5 22 -17 -13 -17 -13 -3 6 8 11 19 23 25 27 5 4 6 10 2 14 -3 4 -13 1 -22
-6 -9 -8 -15 -8 -15 -2 0 6 9 14 20 17 11 4 18 10 15 15 -3 5 -13 7 -23 4 -9
-3 -7 1 6 8 12 8 20 17 16 21 -4 4 -13 2 -21 -4 -9 -9 -13 -8 -13 0 0 6 5 11
12 11 9 0 9 3 1 11 -8 8 -6 16 9 31 15 15 17 23 9 31 -14 14 -14 37 -1 37 5 0
7 -8 3 -17 -3 -10 -3 -15 1 -12 4 4 8 16 11 27 3 16 0 19 -12 15 -12 -5 -15
-2 -10 10 3 9 2 19 -3 22 -6 4 -10 1 -10 -6 0 -7 -3 -9 -6 -6 -4 4 -2 13 5 21
9 11 9 15 -1 19 -10 4 -10 6 0 6 7 1 20 -8 30 -19z m-18 -109 c0 -6 -4 -12 -8
-15 -5 -3 -9 1 -9 9 0 8 4 15 9 15 4 0 8 -4 8 -9z m0 -491 c0 -10 -3 -21 -7
-23 -5 -3 -8 8 -8 23 0 15 3 26 8 23 4 -2 7 -13 7 -23z m-6 -160 c-6 -6 -10
-3 -10 10 0 13 4 16 10 10 7 -7 7 -13 0 -20z m1 -61 c-4 -5 -12 -9 -18 -8 -9
0 -8 2 1 6 6 2 9 10 6 15 -4 7 -2 8 5 4 6 -4 9 -12 6 -17z m-3879 -24 c-2 -7
1 -18 7 -25 9 -10 9 -11 0 -6 -6 3 -14 0 -17 -6 -2 -7 -3 -2 -2 12 2 14 -1 31
-7 38 -7 9 -6 11 7 6 10 -4 15 -12 12 -19z m3871 -11 c-3 -3 -12 -4 -19 -1 -8
3 -5 6 6 6 11 1 17 -2 13 -5z m-27 -144 c0 -5 -4 -10 -10 -10 -5 0 -10 5 -10
10 0 6 5 10 10 10 6 0 10 -4 10 -10z m-45 -19 c-3 -6 3 -14 12 -20 17 -10 17
-10 0 -11 -11 0 -15 -4 -11 -12 4 -6 3 -8 -3 -5 -5 3 -9 16 -7 29 3 28 3 28
10 28 3 0 3 -4 -1 -9z m-3719 -13 c4 -7 3 -8 -4 -4 -7 4 -12 1 -12 -8 0 -9 -5
-16 -10 -16 -12 0 -9 22 5 32 13 10 13 10 21 -4z m3808 -15 c4 -10 4 -14 0
-10 -4 4 -13 2 -21 -5 -11 -9 -8 -17 19 -43 24 -24 33 -42 33 -68 1 -20 -2
-34 -7 -31 -4 3 -8 1 -8 -5 0 -5 5 -13 10 -16 6 -3 10 -12 10 -18 0 -9 -2 -9
-8 0 -6 9 -11 7 -20 -7 -9 -15 -9 -20 0 -20 6 0 8 -3 5 -7 -4 -3 -18 3 -30 15
-13 12 -28 19 -33 15 -5 -5 -5 -4 -1 2 5 5 17 11 28 11 40 3 44 4 34 12 -16
11 -15 44 1 38 22 -8 16 0 -12 19 -17 11 -24 12 -18 4 5 -8 10 -23 11 -34 3
-16 1 -17 -7 -5 -5 8 -10 11 -10 6 0 -5 -7 -3 -15 4 -13 11 -14 10 -9 -4 3 -9
13 -16 22 -16 20 0 7 -13 -18 -17 -14 -2 -18 2 -15 17 3 13 -1 17 -12 13 -8
-3 -11 -9 -6 -12 4 -3 9 -15 11 -26 2 -18 1 -18 -11 3 -7 12 -16 20 -20 17 -4
-3 -5 -2 -2 2 3 3 0 12 -7 20 -9 11 -14 11 -29 -3 -21 -18 -40 -11 -21 8 8 8
7 16 -4 33 -12 18 -12 22 0 22 8 0 12 -6 9 -13 -3 -9 3 -12 21 -8 18 3 29 -1
38 -16 17 -27 27 -25 24 5 -2 13 2 23 8 22 6 -1 10 3 9 10 -2 7 3 10 11 7 21
-8 27 10 12 32 -12 15 -11 21 3 41 19 27 17 27 25 6z m-107 -41 c-4 -22 -26
-61 -27 -45 0 6 4 14 9 17 5 4 8 17 7 31 -2 13 1 22 5 19 5 -3 7 -13 6 -22z
m-3624 -63 c-6 -6 -9 -19 -6 -28 4 -13 3 -13 -5 -2 -10 14 6 56 17 45 3 -2 0
-9 -6 -15z m3559 -23 c6 4 8 2 5 -4 -4 -5 -17 -8 -29 -4 -14 3 -19 1 -14 -6 4
-6 -2 -20 -14 -32 -11 -11 -20 -23 -20 -27 0 -5 -9 -8 -19 -8 -10 0 -25 -6
-35 -14 -14 -12 -16 -12 -10 3 3 9 10 16 16 16 5 0 7 4 4 9 -3 4 4 17 15 27
18 16 19 16 13 1 -3 -9 -11 -17 -18 -17 -6 0 -4 -5 4 -10 18 -12 30 -13 29 -2
-4 21 2 32 13 26 8 -5 9 -2 5 9 -4 11 2 22 16 32 13 9 23 11 25 5 2 -6 9 -7
14 -4z m-3522 -6 c-13 -9 -13 -10 0 -10 13 0 13 -1 0 -10 -9 -6 -18 -6 -25 1
-10 10 9 29 30 29 6 0 3 -5 -5 -10z m24 -34 c-10 -8 -21 -12 -24 -10 -5 6 21
24 34 24 6 0 1 -6 -10 -14z m3346 -67 c0 -15 -33 -24 -38 -11 -2 7 -9 9 -14 6
-7 -5 -8 -2 -3 5 5 9 10 10 18 2 17 -17 31 -13 17 4 -11 13 -10 14 4 9 9 -3
16 -10 16 -15z m-3166 -30 c-3 -6 5 -8 20 -5 14 3 26 0 26 -5 0 -9 -17 -13
-35 -9 -5 1 -15 3 -22 3 -7 0 -10 4 -7 9 3 4 -1 8 -8 8 -10 0 -9 3 2 9 16 11
33 4 24 -10z m3106 3 c-8 -3 -19 -10 -23 -16 -6 -8 -10 -7 -14 2 -2 6 -9 10
-14 6 -5 -3 -9 -1 -9 3 0 5 17 9 38 10 20 0 30 -2 22 -5z m-113 -39 c-11 -12
-16 -12 -22 -2 -5 7 -4 10 3 5 6 -3 14 4 18 16 5 15 9 18 12 10 2 -8 -2 -21
-11 -29z m47 22 c3 -8 1 -15 -4 -15 -6 0 -10 7 -10 15 0 8 2 15 4 15 2 0 6 -7
10 -15z m-2872 -10 c15 1 24 -3 21 -7 -2 -5 -14 -6 -26 -2 -20 6 -21 5 -7 -12
14 -18 14 -18 -8 0 -12 11 -22 24 -22 30 0 7 3 8 8 1 4 -6 19 -10 34 -10z m97
-17 c-5 -10 -12 -18 -15 -18 -3 0 -2 5 1 10 7 11 -8 14 -19 3 -10 -10 -46 -11
-40 -1 4 5 12 7 20 4 8 -3 17 0 20 7 2 7 13 13 23 13 16 0 17 -4 10 -18z m94
15 c-7 -2 -11 -10 -9 -16 1 -7 1 -9 -1 -4 -3 4 -8 5 -13 2 -4 -3 -10 1 -13 8
-3 7 5 12 22 13 14 1 21 -1 14 -3z m109 -8 c14 -19 8 -27 -8 -11 -21 21 -35
20 -28 -1 5 -16 4 -16 -6 0 -9 13 -15 15 -25 7 -9 -8 -14 -7 -18 2 -6 17 74
19 85 3z m41 2 c-4 -7 1 -8 13 -3 22 9 76 18 56 10 -10 -5 -9 -10 5 -21 17
-13 16 -13 -4 -3 -18 8 -23 8 -24 -2 0 -10 -2 -10 -6 0 -2 6 -9 12 -14 12 -6
0 -7 -5 -4 -10 8 -14 -16 -8 -32 7 -17 15 -16 20 2 20 8 0 11 -5 8 -10z m114
-6 c-1 -15 -4 -17 -14 -9 -7 5 -10 14 -7 19 10 16 23 9 21 -10z m511 6 c7 -5
10 -13 6 -18 -4 -6 -11 -6 -19 1 -7 6 -15 7 -17 3 -3 -4 -3 -2 -1 5 1 8 -3 12
-9 9 -7 -2 -12 -9 -11 -15 2 -9 -5 -9 -36 -3 -2 1 2 7 8 15 12 14 58 16 79 3z
m280 0 c7 -5 12 -4 12 2 0 12 33 10 38 -2 9 -26 -14 -33 -45 -14 -7 5 -13 4
-13 -1 0 -5 -12 -9 -26 -9 -19 0 -24 4 -20 16 4 11 2 10 -9 -3 -11 -14 -15
-16 -15 -5 0 11 -2 11 -9 1 -7 -11 -9 -11 -14 2 -4 9 -12 16 -18 16 -8 0 -9
-4 0 -13 8 -10 7 -14 -4 -14 -8 0 -12 4 -9 9 3 4 0 8 -5 8 -6 0 -11 -5 -11
-12 0 -6 -7 -3 -15 8 -13 16 -14 16 -9 2 3 -10 2 -18 -3 -18 -5 0 -9 8 -10 18
-1 16 8 18 85 17 48 0 93 -4 100 -8z m200 0 c6 -5 12 -4 12 1 0 5 15 8 34 8
19 -1 32 -4 30 -7 -2 -4 3 -9 11 -12 8 -4 12 -1 9 6 -3 9 18 12 83 12 49 0 94
-4 101 -8 6 -5 12 -4 12 1 0 5 14 9 30 9 17 0 30 -5 30 -10 0 -5 7 -3 17 4 17
14 20 14 41 -3 7 -6 12 -7 12 -1 0 6 18 10 40 9 22 0 40 -4 40 -8 0 -5 -5 -8
-11 -8 -5 0 -8 -4 -5 -8 2 -4 -15 -8 -39 -8 -24 0 -41 4 -39 8 3 5 -7 8 -21 8
-14 0 -24 -4 -21 -8 6 -11 -65 -9 -81 1 -8 5 -13 3 -13 -4 0 -7 -6 -4 -14 7
-12 16 -17 17 -28 6 -11 -11 -10 -12 5 -7 9 4 17 3 17 -2 0 -4 -29 -8 -64 -8
-35 0 -62 3 -60 6 2 4 -3 9 -11 12 -9 4 -12 1 -9 -7 3 -9 -5 -13 -30 -12 -19
1 -32 4 -30 7 2 4 -3 9 -11 12 -9 4 -12 1 -8 -9 6 -17 -8 -19 -25 -2 -9 9 -12
9 -12 -2 0 -9 -5 -8 -15 6 -13 16 -14 16 -9 1 5 -13 2 -16 -12 -14 -11 1 -25
6 -31 10 -8 5 -13 3 -13 -4 0 -7 -7 -4 -16 7 -8 10 -13 14 -10 7 4 -6 1 -15
-5 -18 -14 -9 -21 -1 -14 17 4 11 21 14 63 14 31 -1 63 -5 70 -9z m679 -7
c-19 -25 -20 -26 -14 -8 3 9 1 19 -6 21 -7 3 -2 4 10 4 18 -1 20 -4 10 -17z
m56 3 c-3 -6 -11 -9 -19 -6 -8 3 -14 -1 -14 -8 0 -7 -2 -10 -5 -7 -11 10 6 34
24 34 11 0 17 -6 14 -13z m39 -5 c-2 -10 -6 -18 -7 -18 -1 0 -5 8 -7 18 -3 11
0 19 7 19 7 0 10 -8 7 -19z m201 10 c-6 -11 5 -10 29 3 15 8 19 8 14 0 -4 -6
-4 -11 1 -12 4 0 18 -2 30 -5 14 -2 22 1 20 8 -1 7 12 12 31 13 17 1 32 -3 32
-8 0 -7 4 -7 12 1 7 7 16 12 22 12 5 0 2 -6 -9 -13 -11 -9 -15 -19 -10 -28 4
-8 -2 -4 -14 9 -24 25 -43 29 -35 8 4 -10 -6 -13 -44 -12 -28 0 -48 4 -45 9 8
13 -10 7 -29 -10 -15 -13 -18 -14 -13 -2 4 10 -1 15 -15 16 -11 1 -18 -2 -16
-6 3 -4 -1 -8 -9 -8 -8 0 -13 5 -12 10 1 5 -4 12 -11 14 -6 3 -10 -1 -9 -9 2
-7 2 -9 -1 -5 -2 4 -10 3 -18 -4 -8 -6 -14 -8 -14 -4 0 17 35 31 75 31 24 -1
41 -4 38 -8z m270 -8 c-3 -12 -8 -19 -11 -16 -5 6 5 36 12 36 2 0 2 -9 -1 -20z
m18 -7 c-12 -20 -14 -14 -5 12 4 9 9 14 11 11 3 -2 0 -13 -6 -23z m-2563 -4
c3 -11 2 -11 -7 1 -10 13 -12 13 -21 0 -5 -8 -10 -10 -10 -4 0 27 31 30 38 3z
m2122 3 c0 -4 -9 -8 -20 -9 -11 -1 -20 2 -20 5 0 4 9 8 20 9 11 1 20 -2 20 -5z
m30 4 c0 -3 -4 -8 -10 -11 -5 -3 -10 -1 -10 4 0 6 5 11 10 11 6 0 10 -2 10 -4z"/>
<path d="M3944 2609 c1 -25 6 -46 12 -46 6 0 11 6 11 14 0 7 -4 13 -9 13 -5 0
-6 6 -1 13 4 6 9 21 10 32 2 15 1 16 -6 6 -7 -11 -9 -11 -13 0 -3 8 -4 -7 -4
-32z"/>
<path d="M3951 2511 c-10 -7 -10 -13 -2 -29 7 -14 8 -23 1 -27 -5 -3 -10 -12
-10 -18 0 -8 3 -8 9 1 4 8 12 12 17 10 10 -4 14 61 5 67 -4 2 -13 0 -20 -4z
m16 -23 c2 -17 0 -19 -7 -8 -5 8 -6 18 -4 22 8 12 10 10 11 -14z"/>
<path d="M3943 2313 c2 -12 6 -26 10 -29 4 -4 2 -13 -4 -20 -8 -9 -5 -15 10
-23 17 -10 19 -8 16 10 -3 12 -7 24 -10 27 -2 3 -1 10 5 16 5 7 5 17 0 26 -9
13 -10 13 -10 0 0 -13 -1 -13 -10 0 -8 12 -9 10 -7 -7z"/>
<path d="M3949 2227 c-5 -29 -2 -51 8 -54 7 -3 11 5 9 21 -3 24 -15 47 -17 33z"/>
<path d="M3944 2040 c0 -11 2 -17 5 -15 2 3 10 0 17 -6 9 -7 12 -6 10 7 -4 25
-32 37 -32 14z"/>
<path d="M3945 1929 c-1 -26 3 -45 8 -42 5 3 6 8 3 11 -3 3 0 12 6 20 19 22
19 49 0 54 -14 4 -17 -3 -17 -43z m21 16 c-1 -8 -5 -17 -8 -21 -5 -4 -4 16 1
34 3 9 9 -1 7 -13z"/>
<path d="M3940 1836 c0 -3 9 -10 20 -16 11 -6 20 -8 20 -6 0 3 -9 10 -20 16
-11 6 -20 8 -20 6z"/>
<path d="M3954 1783 c4 -8 2 -13 -5 -13 -10 0 -10 -3 -1 -12 8 -8 15 -9 22 -2
8 8 6 15 -6 25 -12 9 -15 10 -10 2z"/>
<path d="M3959 1387 c6 -8 7 -18 3 -22 -4 -5 -1 -5 6 -1 10 6 10 11 1 22 -6 8
-14 14 -16 14 -3 0 0 -6 6 -13z"/>
<path d="M3950 1251 c0 -5 5 -13 10 -16 6 -3 10 -2 10 4 0 5 -4 13 -10 16 -5
3 -10 2 -10 -4z"/>
<path d="M3964 849 c-3 -6 -2 -15 3 -20 5 -5 9 -1 9 11 0 23 -2 24 -12 9z"/>
<path d="M3949 481 c0 -3 -2 -13 -4 -21 -14 -59 -14 -62 0 -50 8 6 19 9 24 5
13 -7 3 23 -13 44 -9 12 -8 13 5 9 9 -4 16 -1 16 6 0 12 -26 19 -28 7z m2 -54
c-10 -9 -11 -8 -5 6 3 10 9 15 12 12 3 -3 0 -11 -7 -18z"/>
<path d="M3873 293 c0 -10 4 -10 16 -1 9 7 18 13 20 15 2 1 -5 1 -16 0 -11 0
-20 -7 -20 -14z"/>
<path d="M3922 262 c-20 -15 -21 -20 -9 -36 10 -13 16 -16 21 -7 4 6 0 14 -9
17 -13 5 -14 9 -4 15 7 4 22 1 35 -8 20 -13 22 -13 20 2 -4 28 -29 35 -54 17z
m43 -10 c-3 -3 -11 0 -18 7 -9 10 -8 11 6 5 10 -3 15 -9 12 -12z"/>
<path d="M3815 232 c3 -3 -1 -12 -7 -21 -9 -12 -7 -12 7 1 18 17 20 17 39 0
21 -17 21 -17 3 4 -9 11 -24 21 -32 21 -8 0 -13 -3 -10 -5z"/>
<path d="M3936 148 c3 -5 10 -6 15 -3 13 9 11 12 -6 12 -8 0 -12 -4 -9 -9z"/>
<path d="M1835 49 c-3 -4 2 -6 10 -5 21 3 28 13 10 13 -9 0 -18 -4 -20 -8z"/>
<path d="M1895 49 c-3 -4 2 -6 10 -5 21 3 28 13 10 13 -9 0 -18 -4 -20 -8z"/>
<path d="M2004 52 c4 -3 14 -7 22 -8 9 -1 13 0 10 4 -4 3 -14 7 -22 8 -9 1
-13 0 -10 -4z"/>
<path d="M2216 51 c7 -8 74 -9 79 -1 2 3 -16 6 -40 6 -24 0 -42 -3 -39 -5z"/>
<path d="M2375 50 c-2 -3 9 -6 25 -6 17 0 27 2 25 5 -8 7 -45 9 -50 1z"/>
<path d="M2505 50 c-5 -8 42 -7 49 1 3 3 -6 5 -20 5 -14 0 -27 -3 -29 -6z"/>
<path d="M36 1573 c-6 -14 -5 -15 5 -6 7 7 10 15 7 18 -3 3 -9 -2 -12 -12z"/>
<path d="M35 1520 c-3 -5 -1 -10 4 -10 6 0 11 5 11 10 0 6 -2 10 -4 10 -3 0
-8 -4 -11 -10z"/>
<path d="M3950 1519 c0 -5 5 -7 10 -4 6 3 10 8 10 11 0 2 -4 4 -10 4 -5 0 -10
-5 -10 -11z"/>
<path d="M34 1319 c0 -10 4 -19 8 -19 4 0 8 6 8 14 0 8 -4 17 -8 20 -4 2 -8
-4 -8 -15z"/>
<path d="M36 1113 c-6 -14 -5 -15 5 -6 7 7 10 15 7 18 -3 3 -9 -2 -12 -12z"/>
<path d="M35 1080 c3 -5 8 -10 11 -10 2 0 4 5 4 10 0 6 -5 10 -11 10 -5 0 -7
-4 -4 -10z"/>
<path d="M34 930 c3 -55 12 -59 12 -4 0 24 -3 44 -7 44 -4 0 -6 -18 -5 -40z"/>
<path d="M34 770 c0 -44 3 -80 6 -80 3 0 6 36 6 80 0 44 -3 80 -6 80 -3 0 -5
-36 -6 -80z"/>
<path d="M39 678 c-5 -18 -6 -38 -1 -34 7 8 12 36 6 36 -2 0 -4 -1 -5 -2z"/>
<path d="M61 486 c-9 -10 -8 -15 2 -19 8 -3 13 3 13 14 0 23 0 23 -15 5z"/>
<path d="M285 160 c-10 -17 43 -59 68 -53 16 3 18 2 9 -5 -11 -7 -9 -10 7 -15
12 -3 24 -5 28 -5 3 0 10 -6 14 -14 5 -7 9 -8 9 -3 0 6 -5 17 -10 25 -5 8 -10
11 -10 6 0 -6 -9 0 -21 13 -15 15 -24 19 -33 12 -8 -7 -16 -4 -26 12 -8 12
-13 25 -12 30 3 11 -16 9 -23 -3z"/>
<path d="M3770 159 c0 -5 5 -7 10 -4 6 3 10 8 10 11 0 2 -4 4 -10 4 -5 0 -10
-5 -10 -11z"/>
<path d="M3830 141 c0 -6 4 -13 10 -16 6 -3 7 1 4 9 -7 18 -14 21 -14 7z"/>
<path d="M3859 133 c14 -28 14 -36 -1 -27 -7 4 -8 3 -4 -5 7 -11 26 -6 26 8 0
4 -7 16 -16 27 -15 18 -15 18 -5 -3z"/>
<path d="M3754 111 c16 -18 36 -20 36 -5 0 3 -4 2 -10 -1 -5 -3 -10 -2 -10 3
0 6 -8 13 -17 16 -15 6 -15 5 1 -13z"/>
<path d="M3810 120 c0 -5 5 -10 11 -10 5 0 7 5 4 10 -3 6 -8 10 -11 10 -2 0
-4 -4 -4 -10z"/>
<path d="M3664 109 c-4 -7 -3 -9 4 -5 5 3 13 0 15 -6 4 -9 6 -10 6 -1 1 17
-16 25 -25 12z"/>
<path d="M3725 100 c-8 -13 3 -30 18 -29 9 0 9 2 0 6 -7 2 -13 9 -13 14 0 6 5
7 12 3 7 -4 8 -3 4 4 -9 15 -13 15 -21 2z"/>
<path d="M3916 97 c3 -10 9 -15 12 -12 3 3 0 11 -7 18 -10 9 -11 8 -5 -6z"/>
<path d="M3795 90 c-8 -13 3 -30 18 -30 7 0 6 4 -3 10 -13 9 -13 11 0 20 9 6
10 10 3 10 -6 0 -15 -4 -18 -10z"/>
<path d="M3834 80 c0 -13 4 -16 10 -10 7 7 7 13 0 20 -6 6 -10 3 -10 -10z"/>
<path d="M3970 89 c-11 -8 -12 -12 -2 -16 6 -2 9 -10 5 -16 -3 -7 -2 -9 2 -4
7 5 16 48 11 47 -1 0 -8 -5 -16 -11z"/>
<path d="M3890 80 c0 -5 5 -10 10 -10 6 0 10 5 10 10 0 6 -4 10 -10 10 -5 0
-10 -4 -10 -10z"/>
<path d="M3710 61 c0 -10 29 -36 34 -30 1 2 -6 12 -16 22 -10 9 -18 13 -18 8z"/>
<path d="M3756 61 c-18 -7 -18 -8 -3 -14 9 -3 17 -2 17 4 0 6 5 7 12 3 7 -4 8
-3 4 4 -4 7 -8 12 -9 11 -1 0 -11 -4 -21 -8z"/>
<path d="M1123 53 c-15 -5 -18 -33 -4 -33 5 0 11 9 14 20 3 11 4 20 4 19 -1 0
-8 -3 -14 -6z"/>
<path d="M1274 46 c-13 -10 -14 -15 -5 -20 7 -5 21 0 32 10 18 16 19 16 13 1
-3 -10 -1 -17 6 -17 18 0 7 33 -12 36 -9 1 -25 -4 -34 -10z m21 -6 c-3 -5 -12
-10 -18 -10 -7 0 -6 4 3 10 19 12 23 12 15 0z"/>
<path d="M1349 44 c-14 -17 -17 -15 49 -18 54 -2 62 3 38 23 -10 8 -16 9 -21
1 -3 -6 -12 -7 -18 -3 -20 13 -36 12 -48 -3z m36 -3 c-9 -8 -36 -10 -30 -2 2
4 11 8 20 8 8 0 13 -3 10 -6z"/>
<path d="M3686 43 c-6 -14 -5 -15 5 -6 7 7 10 15 7 18 -3 3 -9 -2 -12 -12z"/>
<path d="M3866 44 c-9 -24 -2 -26 12 -4 7 11 8 20 3 20 -5 0 -12 -7 -15 -16z"/>
<path d="M3566 37 c3 -10 9 -15 12 -12 3 3 0 11 -7 18 -10 9 -11 8 -5 -6z"/>
<path d="M3800 40 c-8 -5 -10 -10 -5 -10 6 0 17 5 25 10 8 5 11 10 5 10 -5 0
-17 -5 -25 -10z"/>
<path d="M3985 39 c-4 -6 -5 -12 -2 -15 2 -3 7 2 10 11 7 17 1 20 -8 4z"/>
<path d="M3593 25 c0 -8 4 -12 9 -9 5 3 6 10 3 15 -9 13 -12 11 -12 -6z"/>
<path d="M3630 29 c-12 -8 -10 -9 9 -4 17 5 22 4 16 -5 -5 -9 -4 -11 4 -6 6 4
9 12 6 17 -8 12 -16 11 -35 -2z"/>
<path d="M3839 38 c-5 -18 -6 -38 -1 -34 7 8 12 36 6 36 -2 0 -4 -1 -5 -2z"/>
<path d="M3895 31 c-3 -5 0 -13 6 -17 8 -5 9 -3 4 6 -6 9 -1 10 16 5 19 -5 21
-4 9 4 -19 13 -27 14 -35 2z"/>
<path d="M3695 21 c-6 -11 13 -26 22 -17 4 3 1 6 -6 6 -7 0 -9 5 -6 10 3 6 4
10 1 10 -3 0 -7 -4 -11 -9z"/>
<path d="M3955 20 c3 -5 8 -10 11 -10 2 0 4 5 4 10 0 6 -5 10 -11 10 -5 0 -7
-4 -4 -10z"/>
<path d="M3757 9 c7 -7 15 -10 18 -7 3 3 -2 9 -12 12 -14 6 -15 5 -6 -5z"/>
</g>
</svg>
